<svg width="280" height="38" viewBox="0 0 280 38" fill="none" xmlns="http://www.w3.org/2000/svg">
<g filter="url(#filter0_dd_456_15036)">
<g clip-path="url(#clip0_456_15036)">
<rect x="24" y="2" width="32" height="32" rx="8" fill="white"/>
<rect x="24" y="2" width="32" height="32" rx="8" fill="url(#paint0_linear_456_15036)"/>
<path fill-rule="evenodd" clip-rule="evenodd" d="M40 4.03861C32.2895 4.03861 26.0389 10.2892 26.0389 17.9998C26.0389 25.7103 32.2895 31.9609 40 31.9609C47.7106 31.9609 53.9612 25.7103 53.9612 17.9998C53.9612 10.2892 47.7106 4.03861 40 4.03861ZM25.9612 17.9998C25.9612 10.2463 32.2466 3.96094 40 3.96094C47.7535 3.96094 54.0389 10.2463 54.0389 17.9998C54.0389 25.7532 47.7535 32.0386 40 32.0386C32.2466 32.0386 25.9612 25.7532 25.9612 17.9998Z" fill="#D0D5DD"/>
<path fill-rule="evenodd" clip-rule="evenodd" d="M40 14.0777C37.8338 14.0777 36.0777 15.8338 36.0777 18C36.0777 20.1662 37.8338 21.9223 40 21.9223C42.1662 21.9223 43.9223 20.1662 43.9223 18C43.9223 15.8338 42.1662 14.0777 40 14.0777ZM36 18C36 15.7909 37.7909 14 40 14C42.2091 14 44 15.7909 44 18C44 20.2091 42.2091 22 40 22C37.7909 22 36 20.2091 36 18Z" fill="#D0D5DD"/>
<path fill-rule="evenodd" clip-rule="evenodd" d="M40 15.3199C38.5201 15.3199 37.3204 16.5196 37.3204 17.9995C37.3204 19.4794 38.5201 20.6791 40 20.6791C41.4799 20.6791 42.6796 19.4794 42.6796 17.9995C42.6796 16.5196 41.4799 15.3199 40 15.3199ZM37.2427 17.9995C37.2427 16.4767 38.4772 15.2422 40 15.2422C41.5228 15.2422 42.7573 16.4767 42.7573 17.9995C42.7573 19.5223 41.5228 20.7568 40 20.7568C38.4772 20.7568 37.2427 19.5223 37.2427 17.9995Z" fill="#D0D5DD"/>
<path d="M39.9612 2H40.0389V34H39.9612V2Z" fill="#D0D5DD"/>
<path d="M56 17.9609L56 18.0386L24 18.0386L24 17.9609L56 17.9609Z" fill="#D0D5DD"/>
<path d="M50.6019 2H50.6796V34H50.6019V2Z" fill="#D0D5DD"/>
<path d="M34.6407 2H34.7184V34H34.6407V2Z" fill="#D0D5DD"/>
<path d="M45.2816 2H45.3592V34H45.2816V2Z" fill="#D0D5DD"/>
<path d="M29.3204 2H29.398V34H29.3204V2Z" fill="#D0D5DD"/>
<path d="M56 28.6016L56 28.6792L24 28.6792L24 28.6016L56 28.6016Z" fill="#D0D5DD"/>
<path d="M56 12.6406L56 12.7183L24 12.7183L24 12.6406L56 12.6406Z" fill="#D0D5DD"/>
<path d="M56 23.2812L56 23.3589L24 23.3589L24 23.2812L56 23.2812Z" fill="#D0D5DD"/>
<path d="M56 7.32031L56 7.39798L24 7.39798L24 7.32031L56 7.32031Z" fill="#D0D5DD"/>
<g filter="url(#filter1_dd_456_15036)">
<circle cx="40" cy="18" r="8" fill="url(#paint1_linear_456_15036)"/>
</g>
<g filter="url(#filter2_b_456_15036)">
<path d="M24 18H56V21.2C56 25.6804 56 27.9206 55.1281 29.6319C54.3611 31.1372 53.1372 32.3611 51.6319 33.1281C49.9206 34 47.6804 34 43.2 34H36.8C32.3196 34 30.0794 34 28.3681 33.1281C26.8628 32.3611 25.6389 31.1372 24.8719 29.6319C24 27.9206 24 25.6804 24 21.2V18Z" fill="white" fill-opacity="0.2"/>
</g>
</g>
<rect x="24.1" y="2.1" width="31.8" height="31.8" rx="7.9" stroke="#D0D5DD" stroke-width="0.2"/>
</g>
<path d="M82.098 15.5469H78.9872C78.9304 15.1444 78.8144 14.7869 78.6392 14.4744C78.464 14.1572 78.2391 13.8873 77.9645 13.6648C77.6899 13.4422 77.3726 13.2718 77.0128 13.1534C76.6577 13.035 76.2718 12.9759 75.8551 12.9759C75.1023 12.9759 74.4465 13.1629 73.8878 13.5369C73.3291 13.9062 72.8958 14.446 72.5881 15.1562C72.2803 15.8617 72.1264 16.7187 72.1264 17.7273C72.1264 18.7642 72.2803 19.6354 72.5881 20.3409C72.9006 21.0464 73.3362 21.5791 73.8949 21.9389C74.4536 22.2988 75.0999 22.4787 75.8338 22.4787C76.2457 22.4787 76.6269 22.4242 76.9773 22.3153C77.3324 22.2064 77.6473 22.0478 77.9219 21.8395C78.1965 21.6264 78.4238 21.3684 78.6037 21.0653C78.7884 20.7623 78.9162 20.4167 78.9872 20.0284L82.098 20.0426C82.0175 20.7102 81.8163 21.3542 81.4943 21.9744C81.1771 22.59 80.7486 23.1416 80.2088 23.6293C79.6738 24.1122 79.0346 24.4957 78.2912 24.7798C77.5526 25.0592 76.7169 25.1989 75.7841 25.1989C74.4867 25.1989 73.3267 24.9053 72.304 24.3182C71.286 23.7311 70.4811 22.8812 69.8892 21.7685C69.3021 20.6558 69.0085 19.3087 69.0085 17.7273C69.0085 16.1411 69.3068 14.7917 69.9034 13.679C70.5 12.5663 71.3097 11.7187 72.3324 11.1364C73.3551 10.5492 74.5057 10.2557 75.7841 10.2557C76.6269 10.2557 77.4081 10.3741 78.1278 10.6108C78.8523 10.8475 79.4938 11.1932 80.0526 11.6477C80.6113 12.0975 81.0658 12.6491 81.4162 13.3026C81.7713 13.956 81.9986 14.7041 82.098 15.5469ZM86.2511 29.0909C85.8675 29.0909 85.5077 29.0601 85.1715 28.9986C84.8401 28.9418 84.5655 28.8684 84.3477 28.7784L85.0295 26.5199C85.3846 26.6288 85.7042 26.688 85.9883 26.6974C86.2771 26.7069 86.5257 26.6406 86.734 26.4986C86.9471 26.3565 87.1199 26.1151 87.2525 25.7741L87.43 25.3125L83.5167 14.0909H86.6985L88.957 22.1023H89.0707L91.3505 14.0909H94.5536L90.3136 26.179C90.11 26.7661 89.833 27.2775 89.4826 27.7131C89.137 28.1534 88.699 28.492 88.1687 28.7287C87.6384 28.9702 86.9992 29.0909 86.2511 29.0909ZM96.1587 25V10.4545H99.1843V15.9233H99.2766C99.4092 15.6297 99.601 15.3314 99.8519 15.0284C100.108 14.7206 100.439 14.465 100.846 14.2614C101.258 14.053 101.77 13.9489 102.38 13.9489C103.176 13.9489 103.91 14.1572 104.582 14.5739C105.254 14.9858 105.792 15.6084 106.194 16.4418C106.597 17.2704 106.798 18.3097 106.798 19.5597C106.798 20.7765 106.601 21.804 106.208 22.642C105.82 23.4754 105.29 24.1075 104.618 24.5384C103.95 24.9645 103.202 25.1776 102.373 25.1776C101.786 25.1776 101.287 25.0805 100.875 24.8864C100.467 24.6922 100.134 24.4484 99.8732 24.1548C99.6128 23.8565 99.4139 23.5559 99.2766 23.2528H99.1417V25H96.1587ZM99.1204 19.5455C99.1204 20.1941 99.2103 20.7599 99.3903 21.2429C99.5702 21.7259 99.8306 22.1023 100.172 22.3722C100.512 22.6373 100.927 22.7699 101.414 22.7699C101.907 22.7699 102.324 22.6349 102.664 22.3651C103.005 22.0904 103.263 21.7116 103.439 21.2287C103.618 20.741 103.708 20.1799 103.708 19.5455C103.708 18.9157 103.621 18.3617 103.446 17.8835C103.27 17.4053 103.012 17.0312 102.672 16.7614C102.331 16.4915 101.912 16.3565 101.414 16.3565C100.922 16.3565 100.505 16.4867 100.164 16.7472C99.8282 17.0076 99.5702 17.3769 99.3903 17.8551C99.2103 18.3333 99.1204 18.8968 99.1204 19.5455ZM113.788 25.2131C112.666 25.2131 111.7 24.9858 110.891 24.5312C110.086 24.072 109.465 23.4233 109.03 22.5852C108.594 21.7424 108.376 20.7457 108.376 19.5952C108.376 18.473 108.594 17.4882 109.03 16.6406C109.465 15.7931 110.079 15.1326 110.869 14.6591C111.665 14.1856 112.598 13.9489 113.668 13.9489C114.387 13.9489 115.057 14.0649 115.678 14.2969C116.303 14.5241 116.847 14.8674 117.311 15.3267C117.78 15.786 118.144 16.3636 118.405 17.0597C118.665 17.7509 118.795 18.5606 118.795 19.4886V20.3196H109.584V18.4446H115.947C115.947 18.009 115.853 17.6231 115.663 17.2869C115.474 16.9508 115.211 16.688 114.875 16.4986C114.544 16.3045 114.158 16.2074 113.717 16.2074C113.258 16.2074 112.851 16.3139 112.496 16.527C112.145 16.7353 111.871 17.017 111.672 17.3722C111.473 17.7225 111.371 18.1132 111.366 18.544V20.3267C111.366 20.8665 111.466 21.3329 111.665 21.7259C111.868 22.1188 112.155 22.4219 112.524 22.6349C112.893 22.848 113.331 22.9545 113.838 22.9545C114.174 22.9545 114.482 22.9072 114.761 22.8125C115.041 22.7178 115.28 22.5758 115.479 22.3864C115.678 22.197 115.829 21.965 115.933 21.6903L118.732 21.875C118.589 22.5473 118.298 23.1345 117.858 23.6364C117.422 24.1335 116.859 24.5218 116.168 24.8011C115.481 25.0758 114.688 25.2131 113.788 25.2131ZM120.77 25V14.0909H123.703V15.9943H123.817C124.016 15.3172 124.349 14.8059 124.818 14.4602C125.287 14.1098 125.827 13.9347 126.438 13.9347C126.589 13.9347 126.752 13.9441 126.928 13.9631C127.103 13.982 127.257 14.008 127.389 14.0412V16.7259C127.247 16.6832 127.051 16.6454 126.8 16.6122C126.549 16.5791 126.319 16.5625 126.111 16.5625C125.666 16.5625 125.268 16.6596 124.918 16.8537C124.572 17.0431 124.297 17.3082 124.094 17.6491C123.895 17.9901 123.795 18.383 123.795 18.8281V25H120.77ZM141.176 10.4545V25H138.52L132.192 15.8452H132.086V25H129.01V10.4545H131.709L137.988 19.6023H138.115V10.4545H141.176ZM148.632 25.2131C147.51 25.2131 146.544 24.9858 145.734 24.5312C144.929 24.072 144.309 23.4233 143.874 22.5852C143.438 21.7424 143.22 20.7457 143.22 19.5952C143.22 18.473 143.438 17.4882 143.874 16.6406C144.309 15.7931 144.922 15.1326 145.713 14.6591C146.509 14.1856 147.441 13.9489 148.511 13.9489C149.231 13.9489 149.901 14.0649 150.521 14.2969C151.146 14.5241 151.691 14.8674 152.155 15.3267C152.624 15.786 152.988 16.3636 153.249 17.0597C153.509 17.7509 153.639 18.5606 153.639 19.4886V20.3196H144.428V18.4446H150.791C150.791 18.009 150.696 17.6231 150.507 17.2869C150.318 16.9508 150.055 16.688 149.719 16.4986C149.387 16.3045 149.001 16.2074 148.561 16.2074C148.102 16.2074 147.695 16.3139 147.339 16.527C146.989 16.7353 146.714 17.017 146.516 17.3722C146.317 17.7225 146.215 18.1132 146.21 18.544V20.3267C146.21 20.8665 146.31 21.3329 146.509 21.7259C146.712 22.1188 146.999 22.4219 147.368 22.6349C147.737 22.848 148.175 22.9545 148.682 22.9545C149.018 22.9545 149.326 22.9072 149.605 22.8125C149.884 22.7178 150.124 22.5758 150.322 22.3864C150.521 22.197 150.673 21.965 150.777 21.6903L153.575 21.875C153.433 22.5473 153.142 23.1345 152.702 23.6364C152.266 24.1335 151.703 24.5218 151.011 24.8011C150.325 25.0758 149.532 25.2131 148.632 25.2131ZM161.416 14.0909V16.3636H154.847V14.0909H161.416ZM156.338 11.4773H159.364V21.6477C159.364 21.9271 159.406 22.1449 159.491 22.3011C159.577 22.4527 159.695 22.5592 159.847 22.6207C160.003 22.6823 160.183 22.7131 160.386 22.7131C160.528 22.7131 160.67 22.7012 160.812 22.6776C160.955 22.6491 161.063 22.6278 161.139 22.6136L161.615 24.8651C161.464 24.9124 161.25 24.9669 160.976 25.0284C160.701 25.0947 160.367 25.1349 159.974 25.1491C159.245 25.1776 158.606 25.0805 158.057 24.858C157.512 24.6354 157.089 24.2898 156.786 23.821C156.482 23.3523 156.333 22.7604 156.338 22.0455V11.4773Z" fill="white"/>
<defs>
<filter id="filter0_dd_456_15036" x="21" y="0" width="38" height="38" filterUnits="userSpaceOnUse" color-interpolation-filters="sRGB">
<feFlood flood-opacity="0" result="BackgroundImageFix"/>
<feColorMatrix in="SourceAlpha" type="matrix" values="0 0 0 0 0 0 0 0 0 0 0 0 0 0 0 0 0 0 127 0" result="hardAlpha"/>
<feOffset dy="1"/>
<feGaussianBlur stdDeviation="1"/>
<feColorMatrix type="matrix" values="0 0 0 0 0.0627451 0 0 0 0 0.0941176 0 0 0 0 0.156863 0 0 0 0.06 0"/>
<feBlend mode="normal" in2="BackgroundImageFix" result="effect1_dropShadow_456_15036"/>
<feColorMatrix in="SourceAlpha" type="matrix" values="0 0 0 0 0 0 0 0 0 0 0 0 0 0 0 0 0 0 127 0" result="hardAlpha"/>
<feOffset dy="1"/>
<feGaussianBlur stdDeviation="1.5"/>
<feColorMatrix type="matrix" values="0 0 0 0 0.0627451 0 0 0 0 0.0941176 0 0 0 0 0.156863 0 0 0 0.1 0"/>
<feBlend mode="normal" in2="effect1_dropShadow_456_15036" result="effect2_dropShadow_456_15036"/>
<feBlend mode="normal" in="SourceGraphic" in2="effect2_dropShadow_456_15036" result="shape"/>
</filter>
<filter id="filter1_dd_456_15036" x="29" y="8" width="22" height="22" filterUnits="userSpaceOnUse" color-interpolation-filters="sRGB">
<feFlood flood-opacity="0" result="BackgroundImageFix"/>
<feColorMatrix in="SourceAlpha" type="matrix" values="0 0 0 0 0 0 0 0 0 0 0 0 0 0 0 0 0 0 127 0" result="hardAlpha"/>
<feOffset dy="1"/>
<feGaussianBlur stdDeviation="1"/>
<feColorMatrix type="matrix" values="0 0 0 0 0.0627451 0 0 0 0 0.0941176 0 0 0 0 0.156863 0 0 0 0.06 0"/>
<feBlend mode="normal" in2="BackgroundImageFix" result="effect1_dropShadow_456_15036"/>
<feColorMatrix in="SourceAlpha" type="matrix" values="0 0 0 0 0 0 0 0 0 0 0 0 0 0 0 0 0 0 127 0" result="hardAlpha"/>
<feOffset dy="1"/>
<feGaussianBlur stdDeviation="1.5"/>
<feColorMatrix type="matrix" values="0 0 0 0 0.0627451 0 0 0 0 0.0941176 0 0 0 0 0.156863 0 0 0 0.1 0"/>
<feBlend mode="normal" in2="effect1_dropShadow_456_15036" result="effect2_dropShadow_456_15036"/>
<feBlend mode="normal" in="SourceGraphic" in2="effect2_dropShadow_456_15036" result="shape"/>
</filter>
<filter id="filter2_b_456_15036" x="19" y="13" width="42" height="26" filterUnits="userSpaceOnUse" color-interpolation-filters="sRGB">
<feFlood flood-opacity="0" result="BackgroundImageFix"/>
<feGaussianBlur in="BackgroundImageFix" stdDeviation="2.5"/>
<feComposite in2="SourceAlpha" operator="in" result="effect1_backgroundBlur_456_15036"/>
<feBlend mode="normal" in="SourceGraphic" in2="effect1_backgroundBlur_456_15036" result="shape"/>
</filter>
<linearGradient id="paint0_linear_456_15036" x1="40" y1="2" x2="40" y2="34" gradientUnits="userSpaceOnUse">
<stop stop-color="white"/>
<stop offset="1" stop-color="#D0D5DD"/>
</linearGradient>
<linearGradient id="paint1_linear_456_15036" x1="36" y1="26" x2="44" y2="10" gradientUnits="userSpaceOnUse">
<stop stop-color="#53389E"/>
<stop offset="1" stop-color="#6941C6"/>
</linearGradient>
<clipPath id="clip0_456_15036">
<rect x="24" y="2" width="32" height="32" rx="8" fill="white"/>
</clipPath>
</defs>
</svg>
