<svg width="158" height="38" viewBox="0 0 158 38" fill="none" xmlns="http://www.w3.org/2000/svg">
<g filter="url(#filter0_dd_456_14726)">
<g clip-path="url(#clip0_456_14726)">
<rect x="3" y="2" width="32" height="32" rx="8" fill="white"/>
<rect x="3" y="2" width="32" height="32" rx="8" fill="url(#paint0_linear_456_14726)"/>
<path fill-rule="evenodd" clip-rule="evenodd" d="M19 4.03861C11.2895 4.03861 5.03885 10.2892 5.03885 17.9998C5.03885 25.7103 11.2895 31.9609 19 31.9609C26.7106 31.9609 32.9612 25.7103 32.9612 17.9998C32.9612 10.2892 26.7106 4.03861 19 4.03861ZM4.96118 17.9998C4.96118 10.2463 11.2466 3.96094 19 3.96094C26.7535 3.96094 33.0389 10.2463 33.0389 17.9998C33.0389 25.7532 26.7535 32.0386 19 32.0386C11.2466 32.0386 4.96118 25.7532 4.96118 17.9998Z" fill="#D0D5DD"/>
<path fill-rule="evenodd" clip-rule="evenodd" d="M19 14.0777C16.8338 14.0777 15.0777 15.8338 15.0777 18C15.0777 20.1662 16.8338 21.9223 19 21.9223C21.1662 21.9223 22.9223 20.1662 22.9223 18C22.9223 15.8338 21.1662 14.0777 19 14.0777ZM15 18C15 15.7909 16.7909 14 19 14C21.2091 14 23 15.7909 23 18C23 20.2091 21.2091 22 19 22C16.7909 22 15 20.2091 15 18Z" fill="#D0D5DD"/>
<path fill-rule="evenodd" clip-rule="evenodd" d="M19 15.3199C17.5201 15.3199 16.3204 16.5196 16.3204 17.9995C16.3204 19.4794 17.5201 20.6791 19 20.6791C20.4799 20.6791 21.6796 19.4794 21.6796 17.9995C21.6796 16.5196 20.4799 15.3199 19 15.3199ZM16.2427 17.9995C16.2427 16.4767 17.4772 15.2422 19 15.2422C20.5228 15.2422 21.7573 16.4767 21.7573 17.9995C21.7573 19.5223 20.5228 20.7568 19 20.7568C17.4772 20.7568 16.2427 19.5223 16.2427 17.9995Z" fill="#D0D5DD"/>
<path d="M18.9612 2H19.0389V34H18.9612V2Z" fill="#D0D5DD"/>
<path d="M35 17.9609L35 18.0386L3 18.0386L3 17.9609L35 17.9609Z" fill="#D0D5DD"/>
<path d="M29.602 2H29.6796V34H29.602V2Z" fill="#D0D5DD"/>
<path d="M13.6407 2H13.7184V34H13.6407V2Z" fill="#D0D5DD"/>
<path d="M24.2816 2H24.3592V34H24.2816V2Z" fill="#D0D5DD"/>
<path d="M8.32037 2H8.39804V34H8.32037V2Z" fill="#D0D5DD"/>
<path d="M35 28.6016L35 28.6792L3 28.6792L3 28.6016L35 28.6016Z" fill="#D0D5DD"/>
<path d="M35 12.6406L35 12.7183L3 12.7183L3 12.6406L35 12.6406Z" fill="#D0D5DD"/>
<path d="M35 23.2812L35 23.3589L3 23.3589L3 23.2812L35 23.2812Z" fill="#D0D5DD"/>
<path d="M35 7.32031L35 7.39798L3 7.39798L3 7.32031L35 7.32031Z" fill="#D0D5DD"/>
<g filter="url(#filter1_dd_456_14726)">
<circle cx="19" cy="18" r="8" fill="url(#paint1_linear_456_14726)"/>
</g>
<g filter="url(#filter2_b_456_14726)">
<path d="M3 18H35V21.2C35 25.6804 35 27.9206 34.1281 29.6319C33.3611 31.1372 32.1372 32.3611 30.6319 33.1281C28.9206 34 26.6804 34 22.2 34H15.8C11.3196 34 9.07937 34 7.36808 33.1281C5.86278 32.3611 4.63893 31.1372 3.87195 29.6319C3 27.9206 3 25.6804 3 21.2V18Z" fill="white" fill-opacity="0.2"/>
</g>
</g>
<rect x="3.1" y="2.1" width="31.8" height="31.8" rx="7.9" stroke="#D0D5DD" stroke-width="0.2"/>
</g>
<path d="M61.9176 15.6562H58.1847C58.1165 15.1733 57.9773 14.7443 57.767 14.3693C57.5568 13.9886 57.2869 13.6648 56.9574 13.3977C56.6278 13.1307 56.2472 12.9261 55.8153 12.7841C55.3892 12.642 54.9261 12.571 54.4261 12.571C53.5227 12.571 52.7358 12.7955 52.0653 13.2443C51.3949 13.6875 50.875 14.3352 50.5057 15.1875C50.1364 16.0341 49.9517 17.0625 49.9517 18.2727C49.9517 19.517 50.1364 20.5625 50.5057 21.4091C50.8807 22.2557 51.4034 22.8949 52.0739 23.3267C52.7443 23.7585 53.5199 23.9744 54.4006 23.9744C54.8949 23.9744 55.3523 23.9091 55.7727 23.7784C56.1989 23.6477 56.5767 23.4574 56.9062 23.2074C57.2358 22.9517 57.5085 22.642 57.7244 22.2784C57.946 21.9148 58.0994 21.5 58.1847 21.0341L61.9176 21.0511C61.821 21.8523 61.5795 22.625 61.1932 23.3693C60.8125 24.108 60.2983 24.7699 59.6506 25.3551C59.0085 25.9347 58.2415 26.3949 57.3494 26.7358C56.4631 27.071 55.4602 27.2386 54.3409 27.2386C52.7841 27.2386 51.392 26.8864 50.1648 26.1818C48.9432 25.4773 47.9773 24.4574 47.267 23.1222C46.5625 21.7869 46.2102 20.1705 46.2102 18.2727C46.2102 16.3693 46.5682 14.75 47.2841 13.4148C48 12.0795 48.9716 11.0625 50.1989 10.3636C51.4261 9.65909 52.8068 9.30682 54.3409 9.30682C55.3523 9.30682 56.2898 9.44886 57.1534 9.73295C58.0227 10.017 58.7926 10.4318 59.4631 10.9773C60.1335 11.517 60.679 12.179 61.0994 12.9631C61.5256 13.7472 61.7983 14.6449 61.9176 15.6562ZM66.9013 31.9091C66.4411 31.9091 66.0092 31.8722 65.6058 31.7983C65.2081 31.7301 64.8786 31.642 64.6172 31.5341L65.4354 28.8239C65.8615 28.9545 66.245 29.0256 66.5859 29.0369C66.9325 29.0483 67.2308 28.9688 67.4808 28.7983C67.7365 28.6278 67.9439 28.3381 68.103 27.929L68.3161 27.375L63.62 13.9091H67.4382L70.1484 23.5227H70.2848L73.0206 13.9091H76.8643L71.7763 28.4148C71.532 29.1193 71.1996 29.733 70.7791 30.2557C70.3643 30.7841 69.8388 31.1903 69.2024 31.4744C68.5661 31.7642 67.799 31.9091 66.9013 31.9091ZM78.7905 27V9.54545H82.4212V16.108H82.532C82.6911 15.7557 82.9212 15.3977 83.2223 15.0341C83.5291 14.6648 83.9268 14.358 84.4155 14.1136C84.9098 13.8636 85.5234 13.7386 86.2564 13.7386C87.2109 13.7386 88.0916 13.9886 88.8984 14.4886C89.7053 14.983 90.3501 15.7301 90.8331 16.7301C91.3161 17.7244 91.5575 18.9716 91.5575 20.4716C91.5575 21.9318 91.3217 23.1648 90.8501 24.1705C90.3842 25.1705 89.7479 25.929 88.9411 26.446C88.1399 26.9574 87.2422 27.2131 86.2479 27.2131C85.5433 27.2131 84.9439 27.0966 84.4496 26.8636C83.9609 26.6307 83.5604 26.3381 83.2479 25.9858C82.9354 25.6278 82.6967 25.267 82.532 24.9034H82.37V27H78.7905ZM82.3445 20.4545C82.3445 21.233 82.4524 21.9119 82.6683 22.4915C82.8842 23.071 83.1967 23.5227 83.6058 23.8466C84.0149 24.1648 84.5121 24.3239 85.0973 24.3239C85.6882 24.3239 86.1882 24.1619 86.5973 23.8381C87.0064 23.5085 87.3161 23.054 87.5263 22.4744C87.7422 21.8892 87.8501 21.2159 87.8501 20.4545C87.8501 19.6989 87.745 19.0341 87.5348 18.4602C87.3246 17.8864 87.0149 17.4375 86.6058 17.1136C86.1967 16.7898 85.6939 16.6278 85.0973 16.6278C84.5064 16.6278 84.0064 16.7841 83.5973 17.0966C83.1939 17.4091 82.8842 17.8523 82.6683 18.4261C82.4524 19 82.3445 19.6761 82.3445 20.4545ZM99.946 27.2557C98.5994 27.2557 97.4403 26.983 96.4688 26.4375C95.5028 25.8864 94.7585 25.108 94.2358 24.1023C93.7131 23.0909 93.4517 21.8949 93.4517 20.5142C93.4517 19.1676 93.7131 17.9858 94.2358 16.9688C94.7585 15.9517 95.4943 15.1591 96.4432 14.5909C97.3977 14.0227 98.517 13.7386 99.8011 13.7386C100.665 13.7386 101.469 13.8778 102.213 14.1562C102.963 14.429 103.616 14.8409 104.173 15.392C104.736 15.9432 105.173 16.6364 105.486 17.4716C105.798 18.3011 105.955 19.2727 105.955 20.3864V21.3835H94.9006V19.1335H102.537C102.537 18.6108 102.423 18.1477 102.196 17.7443C101.969 17.3409 101.653 17.0256 101.25 16.7983C100.852 16.5653 100.389 16.4489 99.8608 16.4489C99.3097 16.4489 98.821 16.5767 98.3949 16.8324C97.9744 17.0824 97.6449 17.4205 97.4062 17.8466C97.1676 18.267 97.0455 18.7358 97.0398 19.2528V21.392C97.0398 22.0398 97.1591 22.5994 97.3977 23.071C97.642 23.5426 97.9858 23.9062 98.429 24.1619C98.8722 24.4176 99.3977 24.5455 100.006 24.5455C100.409 24.5455 100.778 24.4886 101.114 24.375C101.449 24.2614 101.736 24.0909 101.974 23.8636C102.213 23.6364 102.395 23.358 102.52 23.0284L105.878 23.25C105.707 24.0568 105.358 24.7614 104.83 25.3636C104.307 25.9602 103.631 26.4261 102.801 26.7614C101.977 27.0909 101.026 27.2557 99.946 27.2557ZM108.324 27V13.9091H111.844V16.1932H111.98C112.219 15.3807 112.619 14.767 113.182 14.3523C113.744 13.9318 114.392 13.7216 115.125 13.7216C115.307 13.7216 115.503 13.733 115.713 13.7557C115.923 13.7784 116.108 13.8097 116.267 13.8494V17.071C116.097 17.0199 115.861 16.9744 115.56 16.9347C115.259 16.8949 114.983 16.875 114.733 16.875C114.199 16.875 113.722 16.9915 113.301 17.2244C112.886 17.4517 112.557 17.7699 112.312 18.179C112.074 18.5881 111.955 19.0597 111.955 19.5938V27H108.324ZM132.812 9.54545V27H129.624L122.031 16.0142H121.903V27H118.212V9.54545H121.451L128.985 20.5227H129.138V9.54545H132.812ZM141.759 27.2557C140.412 27.2557 139.253 26.983 138.281 26.4375C137.315 25.8864 136.571 25.108 136.048 24.1023C135.526 23.0909 135.264 21.8949 135.264 20.5142C135.264 19.1676 135.526 17.9858 136.048 16.9688C136.571 15.9517 137.307 15.1591 138.256 14.5909C139.21 14.0227 140.33 13.7386 141.614 13.7386C142.477 13.7386 143.281 13.8778 144.026 14.1562C144.776 14.429 145.429 14.8409 145.986 15.392C146.548 15.9432 146.986 16.6364 147.298 17.4716C147.611 18.3011 147.767 19.2727 147.767 20.3864V21.3835H136.713V19.1335H144.349C144.349 18.6108 144.236 18.1477 144.009 17.7443C143.781 17.3409 143.466 17.0256 143.062 16.7983C142.665 16.5653 142.202 16.4489 141.673 16.4489C141.122 16.4489 140.634 16.5767 140.207 16.8324C139.787 17.0824 139.457 17.4205 139.219 17.8466C138.98 18.267 138.858 18.7358 138.852 19.2528V21.392C138.852 22.0398 138.972 22.5994 139.21 23.071C139.455 23.5426 139.798 23.9062 140.241 24.1619C140.685 24.4176 141.21 24.5455 141.818 24.5455C142.222 24.5455 142.591 24.4886 142.926 24.375C143.261 24.2614 143.548 24.0909 143.787 23.8636C144.026 23.6364 144.207 23.358 144.332 23.0284L147.69 23.25C147.52 24.0568 147.17 24.7614 146.642 25.3636C146.119 25.9602 145.443 26.4261 144.614 26.7614C143.79 27.0909 142.838 27.2557 141.759 27.2557ZM157.099 13.9091V16.6364H149.216V13.9091H157.099ZM151.006 10.7727H154.636V22.9773C154.636 23.3125 154.688 23.5739 154.79 23.7614C154.892 23.9432 155.034 24.071 155.216 24.1449C155.403 24.2187 155.619 24.2557 155.864 24.2557C156.034 24.2557 156.205 24.2415 156.375 24.2131C156.545 24.179 156.676 24.1534 156.767 24.1364L157.338 26.8381C157.156 26.8949 156.901 26.9602 156.571 27.0341C156.241 27.1136 155.841 27.1619 155.369 27.179C154.494 27.2131 153.727 27.0966 153.068 26.8295C152.415 26.5625 151.906 26.1477 151.543 25.5852C151.179 25.0227 151 24.3125 151.006 23.4545V10.7727Z" fill="black"/>
<defs>
<filter id="filter0_dd_456_14726" x="0" y="0" width="38" height="38" filterUnits="userSpaceOnUse" color-interpolation-filters="sRGB">
<feFlood flood-opacity="0" result="BackgroundImageFix"/>
<feColorMatrix in="SourceAlpha" type="matrix" values="0 0 0 0 0 0 0 0 0 0 0 0 0 0 0 0 0 0 127 0" result="hardAlpha"/>
<feOffset dy="1"/>
<feGaussianBlur stdDeviation="1"/>
<feColorMatrix type="matrix" values="0 0 0 0 0.0627451 0 0 0 0 0.0941176 0 0 0 0 0.156863 0 0 0 0.06 0"/>
<feBlend mode="normal" in2="BackgroundImageFix" result="effect1_dropShadow_456_14726"/>
<feColorMatrix in="SourceAlpha" type="matrix" values="0 0 0 0 0 0 0 0 0 0 0 0 0 0 0 0 0 0 127 0" result="hardAlpha"/>
<feOffset dy="1"/>
<feGaussianBlur stdDeviation="1.5"/>
<feColorMatrix type="matrix" values="0 0 0 0 0.0627451 0 0 0 0 0.0941176 0 0 0 0 0.156863 0 0 0 0.1 0"/>
<feBlend mode="normal" in2="effect1_dropShadow_456_14726" result="effect2_dropShadow_456_14726"/>
<feBlend mode="normal" in="SourceGraphic" in2="effect2_dropShadow_456_14726" result="shape"/>
</filter>
<filter id="filter1_dd_456_14726" x="8" y="8" width="22" height="22" filterUnits="userSpaceOnUse" color-interpolation-filters="sRGB">
<feFlood flood-opacity="0" result="BackgroundImageFix"/>
<feColorMatrix in="SourceAlpha" type="matrix" values="0 0 0 0 0 0 0 0 0 0 0 0 0 0 0 0 0 0 127 0" result="hardAlpha"/>
<feOffset dy="1"/>
<feGaussianBlur stdDeviation="1"/>
<feColorMatrix type="matrix" values="0 0 0 0 0.0627451 0 0 0 0 0.0941176 0 0 0 0 0.156863 0 0 0 0.06 0"/>
<feBlend mode="normal" in2="BackgroundImageFix" result="effect1_dropShadow_456_14726"/>
<feColorMatrix in="SourceAlpha" type="matrix" values="0 0 0 0 0 0 0 0 0 0 0 0 0 0 0 0 0 0 127 0" result="hardAlpha"/>
<feOffset dy="1"/>
<feGaussianBlur stdDeviation="1.5"/>
<feColorMatrix type="matrix" values="0 0 0 0 0.0627451 0 0 0 0 0.0941176 0 0 0 0 0.156863 0 0 0 0.1 0"/>
<feBlend mode="normal" in2="effect1_dropShadow_456_14726" result="effect2_dropShadow_456_14726"/>
<feBlend mode="normal" in="SourceGraphic" in2="effect2_dropShadow_456_14726" result="shape"/>
</filter>
<filter id="filter2_b_456_14726" x="-2" y="13" width="42" height="26" filterUnits="userSpaceOnUse" color-interpolation-filters="sRGB">
<feFlood flood-opacity="0" result="BackgroundImageFix"/>
<feGaussianBlur in="BackgroundImageFix" stdDeviation="2.5"/>
<feComposite in2="SourceAlpha" operator="in" result="effect1_backgroundBlur_456_14726"/>
<feBlend mode="normal" in="SourceGraphic" in2="effect1_backgroundBlur_456_14726" result="shape"/>
</filter>
<linearGradient id="paint0_linear_456_14726" x1="19" y1="2" x2="19" y2="34" gradientUnits="userSpaceOnUse">
<stop stop-color="white"/>
<stop offset="1" stop-color="#D0D5DD"/>
</linearGradient>
<linearGradient id="paint1_linear_456_14726" x1="15" y1="26" x2="23" y2="10" gradientUnits="userSpaceOnUse">
<stop stop-color="#53389E"/>
<stop offset="1" stop-color="#6941C6"/>
</linearGradient>
<clipPath id="clip0_456_14726">
<rect x="3" y="2" width="32" height="32" rx="8" fill="white"/>
</clipPath>
</defs>
</svg>
