<svg width="16" height="16" viewBox="0 0 16 16" fill="none" xmlns="http://www.w3.org/2000/svg">
<path d="M1.33333 4.66699L6.77661 8.47729C7.21739 8.78583 7.43778 8.94011 7.6775 8.99986C7.88926 9.05265 8.11073 9.05265 8.32249 8.99986C8.56221 8.94011 8.7826 8.78583 9.22338 8.47729L14.6667 4.66699M4.53333 13.3337H11.4667C12.5868 13.3337 13.1468 13.3337 13.5746 13.1157C13.951 12.9239 14.2569 12.618 14.4487 12.2416C14.6667 11.8138 14.6667 11.2538 14.6667 10.1337V5.86699C14.6667 4.74689 14.6667 4.18683 14.4487 3.75901C14.2569 3.38269 13.951 3.07673 13.5746 2.88498C13.1468 2.66699 12.5868 2.66699 11.4667 2.66699H4.53333C3.41322 2.66699 2.85317 2.66699 2.42535 2.88498C2.04902 3.07673 1.74306 3.38269 1.55132 3.75901C1.33333 4.18683 1.33333 4.74689 1.33333 5.86699V10.1337C1.33333 11.2538 1.33333 11.8138 1.55132 12.2416C1.74306 12.618 2.04902 12.9239 2.42535 13.1157C2.85317 13.3337 3.41322 13.3337 4.53333 13.3337Z" stroke="#667085" stroke-width="1.33333" stroke-linecap="round" stroke-linejoin="round"/>
</svg>
